<svg xmlns="http://www.w3.org/2000/svg" width="600" height="240" viewBox="0 0 600 240" shape-rendering="crispEdges"><defs>
      <linearGradient id="bg" x1="0" y1="0" x2="1" y2="0">
        <stop offset="0%" stop-color="#1a1a2e"/>
        <stop offset="50%" stop-color="#0a0a14"/>
        <stop offset="100%" stop-color="#0a0a0a"/>
      </linearGradient>
    </defs><rect width="600" height="240" fill="url(#bg)"/><rect x="0" y="220" width="600" height="1" fill="#333" opacity="0.5"/><rect x="100" y="24" width="8" height="8" fill="#4a3728"/><rect x="108" y="24" width="8" height="8" fill="#4a3728"/><rect x="116" y="24" width="8" height="8" fill="#4a3728"/><rect x="124" y="24" width="8" height="8" fill="#4a3728"/><rect x="132" y="24" width="8" height="8" fill="#4a3728"/><rect x="140" y="24" width="8" height="8" fill="#4a3728"/><rect x="92" y="32" width="8" height="8" fill="#4a3728"/><rect x="100" y="32" width="8" height="8" fill="#4a3728"/><rect x="108" y="32" width="8" height="8" fill="#4a3728"/><rect x="116" y="32" width="8" height="8" fill="#4a3728"/><rect x="124" y="32" width="8" height="8" fill="#4a3728"/><rect x="132" y="32" width="8" height="8" fill="#4a3728"/><rect x="140" y="32" width="8" height="8" fill="#4a3728"/><rect x="148" y="32" width="8" height="8" fill="#4a3728"/><rect x="84" y="40" width="8" height="8" fill="#4a3728"/><rect x="92" y="40" width="8" height="8" fill="#4a3728"/><rect x="100" y="40" width="8" height="8" fill="#2a1a0a"/><rect x="108" y="40" width="8" height="8" fill="#4a3728"/><rect x="116" y="40" width="8" height="8" fill="#4a3728"/><rect x="124" y="40" width="8" height="8" fill="#4a3728"/><rect x="132" y="40" width="8" height="8" fill="#4a3728"/><rect x="140" y="40" width="8" height="8" fill="#2a1a0a"/><rect x="148" y="40" width="8" height="8" fill="#4a3728"/><rect x="156" y="40" width="8" height="8" fill="#4a3728"/><rect x="84" y="48" width="8" height="8" fill="#4a3728"/><rect x="92" y="48" width="8" height="8" fill="#4a3728"/><rect x="100" y="48" width="8" height="8" fill="#4a3728"/><rect x="108" y="48" width="8" height="8" fill="#4a3728"/><rect x="116" y="48" width="8" height="8" fill="#4a3728"/><rect x="124" y="48" width="8" height="8" fill="#4a3728"/><rect x="132" y="48" width="8" height="8" fill="#4a3728"/><rect x="140" y="48" width="8" height="8" fill="#4a3728"/><rect x="148" y="48" width="8" height="8" fill="#4a3728"/><rect x="156" y="48" width="8" height="8" fill="#4a3728"/><rect x="84" y="56" width="8" height="8" fill="#4a3728"/><rect x="92" y="56" width="8" height="8" fill="#f5deb3"/><rect x="100" y="56" width="8" height="8" fill="#f5deb3"/><rect x="108" y="56" width="8" height="8" fill="#f5deb3"/><rect x="116" y="56" width="8" height="8" fill="#f5deb3"/><rect x="124" y="56" width="8" height="8" fill="#f5deb3"/><rect x="132" y="56" width="8" height="8" fill="#f5deb3"/><rect x="140" y="56" width="8" height="8" fill="#f5deb3"/><rect x="148" y="56" width="8" height="8" fill="#f5deb3"/><rect x="156" y="56" width="8" height="8" fill="#4a3728"/><rect x="92" y="64" width="8" height="8" fill="#f5deb3"/><rect x="100" y="64" width="8" height="8" fill="#2a1a0a"/><rect x="108" y="64" width="8" height="8" fill="#f5deb3"/><rect x="116" y="64" width="8" height="8" fill="#f5deb3"/><rect x="124" y="64" width="8" height="8" fill="#f5deb3"/><rect x="132" y="64" width="8" height="8" fill="#f5deb3"/><rect x="140" y="64" width="8" height="8" fill="#2a1a0a"/><rect x="148" y="64" width="8" height="8" fill="#f5deb3"/><rect x="92" y="72" width="8" height="8" fill="#f5deb3"/><rect x="100" y="72" width="8" height="8" fill="#f5deb3"/><rect x="108" y="72" width="8" height="8" fill="#f5deb3"/><rect x="116" y="72" width="8" height="8" fill="#f5deb3"/><rect x="124" y="72" width="8" height="8" fill="#f5deb3"/><rect x="132" y="72" width="8" height="8" fill="#f5deb3"/><rect x="140" y="72" width="8" height="8" fill="#f5deb3"/><rect x="148" y="72" width="8" height="8" fill="#f5deb3"/><rect x="92" y="80" width="8" height="8" fill="#f5deb3"/><rect x="100" y="80" width="8" height="8" fill="#f5deb3"/><rect x="108" y="80" width="8" height="8" fill="#f5deb3"/><rect x="116" y="80" width="8" height="8" fill="#e0c8a0"/><rect x="124" y="80" width="8" height="8" fill="#e0c8a0"/><rect x="132" y="80" width="8" height="8" fill="#f5deb3"/><rect x="140" y="80" width="8" height="8" fill="#f5deb3"/><rect x="148" y="80" width="8" height="8" fill="#f5deb3"/><rect x="100" y="88" width="8" height="8" fill="#f5deb3"/><rect x="108" y="88" width="8" height="8" fill="#f5deb3"/><rect x="116" y="88" width="8" height="8" fill="#f5deb3"/><rect x="124" y="88" width="8" height="8" fill="#f5deb3"/><rect x="132" y="88" width="8" height="8" fill="#f5deb3"/><rect x="140" y="88" width="8" height="8" fill="#f5deb3"/><rect x="100" y="96" width="8" height="8" fill="#f0f0f0"/><rect x="108" y="96" width="8" height="8" fill="#f0f0f0"/><rect x="116" y="96" width="8" height="8" fill="#f0f0f0"/><rect x="124" y="96" width="8" height="8" fill="#f0f0f0"/><rect x="132" y="96" width="8" height="8" fill="#f0f0f0"/><rect x="140" y="96" width="8" height="8" fill="#f0f0f0"/><rect x="92" y="104" width="8" height="8" fill="#f0f0f0"/><rect x="100" y="104" width="8" height="8" fill="#f0f0f0"/><rect x="108" y="104" width="8" height="8" fill="#f0f0f0"/><rect x="116" y="104" width="8" height="8" fill="#f0f0f0"/><rect x="124" y="104" width="8" height="8" fill="#f0f0f0"/><rect x="132" y="104" width="8" height="8" fill="#f0f0f0"/><rect x="140" y="104" width="8" height="8" fill="#f0f0f0"/><rect x="148" y="104" width="8" height="8" fill="#f0f0f0"/><rect x="92" y="112" width="8" height="8" fill="#f0f0f0"/><rect x="100" y="112" width="8" height="8" fill="#f0f0f0"/><rect x="108" y="112" width="8" height="8" fill="#f0f0f0"/><rect x="116" y="112" width="8" height="8" fill="#f0f0f0"/><rect x="124" y="112" width="8" height="8" fill="#f0f0f0"/><rect x="132" y="112" width="8" height="8" fill="#f0f0f0"/><rect x="140" y="112" width="8" height="8" fill="#f0f0f0"/><rect x="148" y="112" width="8" height="8" fill="#f0f0f0"/><rect x="92" y="120" width="8" height="8" fill="#f0f0f0"/><rect x="100" y="120" width="8" height="8" fill="#f0f0f0"/><rect x="108" y="120" width="8" height="8" fill="#f0f0f0"/><rect x="116" y="120" width="8" height="8" fill="#f0f0f0"/><rect x="124" y="120" width="8" height="8" fill="#f0f0f0"/><rect x="132" y="120" width="8" height="8" fill="#f0f0f0"/><rect x="140" y="120" width="8" height="8" fill="#f0f0f0"/><rect x="148" y="120" width="8" height="8" fill="#f0f0f0"/><rect x="92" y="128" width="8" height="8" fill="#f0f0f0"/><rect x="100" y="128" width="8" height="8" fill="#f0f0f0"/><rect x="108" y="128" width="8" height="8" fill="#f0f0f0"/><rect x="116" y="128" width="8" height="8" fill="#f0f0f0"/><rect x="124" y="128" width="8" height="8" fill="#f0f0f0"/><rect x="132" y="128" width="8" height="8" fill="#f0f0f0"/><rect x="140" y="128" width="8" height="8" fill="#f0f0f0"/><rect x="148" y="128" width="8" height="8" fill="#f0f0f0"/><rect x="84" y="136" width="8" height="8" fill="#f5deb3"/><rect x="92" y="136" width="8" height="8" fill="#f0f0f0"/><rect x="100" y="136" width="8" height="8" fill="#f0f0f0"/><rect x="108" y="136" width="8" height="8" fill="#f0f0f0"/><rect x="116" y="136" width="8" height="8" fill="#f0f0f0"/><rect x="124" y="136" width="8" height="8" fill="#f0f0f0"/><rect x="132" y="136" width="8" height="8" fill="#f0f0f0"/><rect x="140" y="136" width="8" height="8" fill="#f0f0f0"/><rect x="148" y="136" width="8" height="8" fill="#f0f0f0"/><rect x="156" y="136" width="8" height="8" fill="#f5deb3"/><rect x="84" y="144" width="8" height="8" fill="#f5deb3"/><rect x="92" y="144" width="8" height="8" fill="#f0f0f0"/><rect x="100" y="144" width="8" height="8" fill="#d0d0d0"/><rect x="108" y="144" width="8" height="8" fill="#f0f0f0"/><rect x="116" y="144" width="8" height="8" fill="#f0f0f0"/><rect x="124" y="144" width="8" height="8" fill="#f0f0f0"/><rect x="132" y="144" width="8" height="8" fill="#f0f0f0"/><rect x="140" y="144" width="8" height="8" fill="#d0d0d0"/><rect x="148" y="144" width="8" height="8" fill="#f0f0f0"/><rect x="156" y="144" width="8" height="8" fill="#f5deb3"/><rect x="84" y="152" width="8" height="8" fill="#f5deb3"/><rect x="92" y="152" width="8" height="8" fill="#f5deb3"/><rect x="100" y="152" width="8" height="8" fill="#d0d0d0"/><rect x="108" y="152" width="8" height="8" fill="#f0f0f0"/><rect x="116" y="152" width="8" height="8" fill="#f0f0f0"/><rect x="124" y="152" width="8" height="8" fill="#f0f0f0"/><rect x="132" y="152" width="8" height="8" fill="#f0f0f0"/><rect x="140" y="152" width="8" height="8" fill="#d0d0d0"/><rect x="148" y="152" width="8" height="8" fill="#f5deb3"/><rect x="156" y="152" width="8" height="8" fill="#f5deb3"/><rect x="92" y="160" width="8" height="8" fill="#f5deb3"/><rect x="100" y="160" width="8" height="8" fill="#d0d0d0"/><rect x="108" y="160" width="8" height="8" fill="#d0d0d0"/><rect x="116" y="160" width="8" height="8" fill="#f0f0f0"/><rect x="124" y="160" width="8" height="8" fill="#f0f0f0"/><rect x="132" y="160" width="8" height="8" fill="#d0d0d0"/><rect x="140" y="160" width="8" height="8" fill="#d0d0d0"/><rect x="148" y="160" width="8" height="8" fill="#f5deb3"/><rect x="100" y="168" width="8" height="8" fill="#f0f0f0"/><rect x="108" y="168" width="8" height="8" fill="#f0f0f0"/><rect x="116" y="168" width="8" height="8" fill="#f0f0f0"/><rect x="124" y="168" width="8" height="8" fill="#f0f0f0"/><rect x="132" y="168" width="8" height="8" fill="#f0f0f0"/><rect x="140" y="168" width="8" height="8" fill="#f0f0f0"/><rect x="100" y="176" width="8" height="8" fill="#f0f0f0"/><rect x="108" y="176" width="8" height="8" fill="#f0f0f0"/><rect x="116" y="176" width="8" height="8" fill="#f0f0f0"/><rect x="124" y="176" width="8" height="8" fill="#f0f0f0"/><rect x="132" y="176" width="8" height="8" fill="#f0f0f0"/><rect x="140" y="176" width="8" height="8" fill="#f0f0f0"/><rect x="100" y="184" width="8" height="8" fill="#f0f0f0"/><rect x="108" y="184" width="8" height="8" fill="#f0f0f0"/><rect x="132" y="184" width="8" height="8" fill="#f0f0f0"/><rect x="140" y="184" width="8" height="8" fill="#f0f0f0"/><rect x="100" y="192" width="8" height="8" fill="#f0f0f0"/><rect x="108" y="192" width="8" height="8" fill="#f0f0f0"/><rect x="132" y="192" width="8" height="8" fill="#f0f0f0"/><rect x="140" y="192" width="8" height="8" fill="#f0f0f0"/><rect x="92" y="200" width="8" height="8" fill="#f5deb3"/><rect x="100" y="200" width="8" height="8" fill="#f5deb3"/><rect x="108" y="200" width="8" height="8" fill="#f5deb3"/><rect x="132" y="200" width="8" height="8" fill="#f5deb3"/><rect x="140" y="200" width="8" height="8" fill="#f5deb3"/><rect x="148" y="200" width="8" height="8" fill="#f5deb3"/><rect x="92" y="208" width="8" height="8" fill="#f5deb3"/><rect x="100" y="208" width="8" height="8" fill="#f5deb3"/><rect x="108" y="208" width="8" height="8" fill="#f5deb3"/><rect x="132" y="208" width="8" height="8" fill="#f5deb3"/><rect x="140" y="208" width="8" height="8" fill="#f5deb3"/><rect x="148" y="208" width="8" height="8" fill="#f5deb3"/><rect x="490" y="24" width="8" height="8" fill="#000000" opacity="0.85"/><rect x="482" y="24" width="8" height="8" fill="#000000" opacity="0.85"/><rect x="474" y="24" width="8" height="8" fill="#000000" opacity="0.85"/><rect x="466" y="24" width="8" height="8" fill="#000000" opacity="0.85"/><rect x="458" y="24" width="8" height="8" fill="#000000" opacity="0.85"/><rect x="450" y="24" width="8" height="8" fill="#000000" opacity="0.85"/><rect x="498" y="32" width="8" height="8" fill="#000000" opacity="0.85"/><rect x="490" y="32" width="8" height="8" fill="#000000" opacity="0.85"/><rect x="482" y="32" width="8" height="8" fill="#000000" opacity="0.85"/><rect x="474" y="32" width="8" height="8" fill="#000000" opacity="0.85"/><rect x="466" y="32" width="8" height="8" fill="#000000" opacity="0.85"/><rect x="458" y="32" width="8" height="8" fill="#000000" opacity="0.85"/><rect x="450" y="32" width="8" height="8" fill="#000000" opacity="0.85"/><rect x="442" y="32" width="8" height="8" fill="#000000" opacity="0.85"/><rect x="506" y="40" width="8" height="8" fill="#000000" opacity="0.85"/><rect x="498" y="40" width="8" height="8" fill="#000000" opacity="0.85"/><rect x="490" y="40" width="8" height="8" fill="#000000" opacity="0.85"/><rect x="482" y="40" width="8" height="8" fill="#000000" opacity="0.85"/><rect x="474" y="40" width="8" height="8" fill="#000000" opacity="0.85"/><rect x="466" y="40" width="8" height="8" fill="#000000" opacity="0.85"/><rect x="458" y="40" width="8" height="8" fill="#000000" opacity="0.85"/><rect x="450" y="40" width="8" height="8" fill="#000000" opacity="0.85"/><rect x="442" y="40" width="8" height="8" fill="#000000" opacity="0.85"/><rect x="434" y="40" width="8" height="8" fill="#000000" opacity="0.85"/><rect x="506" y="48" width="8" height="8" fill="#000000" opacity="0.85"/><rect x="498" y="48" width="8" height="8" fill="#000000" opacity="0.85"/><rect x="490" y="48" width="8" height="8" fill="#000000" opacity="0.85"/><rect x="482" y="48" width="8" height="8" fill="#000000" opacity="0.85"/><rect x="474" y="48" width="8" height="8" fill="#000000" opacity="0.85"/><rect x="466" y="48" width="8" height="8" fill="#000000" opacity="0.85"/><rect x="458" y="48" width="8" height="8" fill="#000000" opacity="0.85"/><rect x="450" y="48" width="8" height="8" fill="#000000" opacity="0.85"/><rect x="442" y="48" width="8" height="8" fill="#000000" opacity="0.85"/><rect x="434" y="48" width="8" height="8" fill="#000000" opacity="0.85"/><rect x="506" y="56" width="8" height="8" fill="#000000" opacity="0.85"/><rect x="498" y="56" width="8" height="8" fill="#0a0a0a" opacity="0.85"/><rect x="490" y="56" width="8" height="8" fill="#0a0a0a" opacity="0.85"/><rect x="482" y="56" width="8" height="8" fill="#0a0a0a" opacity="0.85"/><rect x="474" y="56" width="8" height="8" fill="#000000" opacity="0.85"/><rect x="466" y="56" width="8" height="8" fill="#000000" opacity="0.85"/><rect x="458" y="56" width="8" height="8" fill="#0a0a0a" opacity="0.85"/><rect x="450" y="56" width="8" height="8" fill="#0a0a0a" opacity="0.85"/><rect x="442" y="56" width="8" height="8" fill="#0a0a0a" opacity="0.85"/><rect x="434" y="56" width="8" height="8" fill="#000000" opacity="0.85"/><rect x="498" y="64" width="8" height="8" fill="#000000" opacity="0.85"/><rect x="490" y="64" width="8" height="8" fill="#ffffff" opacity="0.85"/><rect x="482" y="64" width="8" height="8" fill="#000000" opacity="0.85"/><rect x="474" y="64" width="8" height="8" fill="#000000" opacity="0.85"/><rect x="466" y="64" width="8" height="8" fill="#000000" opacity="0.85"/><rect x="458" y="64" width="8" height="8" fill="#000000" opacity="0.85"/><rect x="450" y="64" width="8" height="8" fill="#ffffff" opacity="0.85"/><rect x="442" y="64" width="8" height="8" fill="#000000" opacity="0.85"/><rect x="498" y="72" width="8" height="8" fill="#000000" opacity="0.85"/><rect x="490" y="72" width="8" height="8" fill="#000000" opacity="0.85"/><rect x="482" y="72" width="8" height="8" fill="#000000" opacity="0.85"/><rect x="474" y="72" width="8" height="8" fill="#000000" opacity="0.85"/><rect x="466" y="72" width="8" height="8" fill="#000000" opacity="0.85"/><rect x="458" y="72" width="8" height="8" fill="#000000" opacity="0.85"/><rect x="450" y="72" width="8" height="8" fill="#000000" opacity="0.85"/><rect x="442" y="72" width="8" height="8" fill="#000000" opacity="0.85"/><rect x="498" y="80" width="8" height="8" fill="#000000" opacity="0.85"/><rect x="490" y="80" width="8" height="8" fill="#000000" opacity="0.85"/><rect x="482" y="80" width="8" height="8" fill="#000000" opacity="0.85"/><rect x="474" y="80" width="8" height="8" fill="#111111" opacity="0.85"/><rect x="466" y="80" width="8" height="8" fill="#111111" opacity="0.85"/><rect x="458" y="80" width="8" height="8" fill="#000000" opacity="0.85"/><rect x="450" y="80" width="8" height="8" fill="#000000" opacity="0.85"/><rect x="442" y="80" width="8" height="8" fill="#000000" opacity="0.85"/><rect x="490" y="88" width="8" height="8" fill="#000000" opacity="0.85"/><rect x="482" y="88" width="8" height="8" fill="#000000" opacity="0.85"/><rect x="474" y="88" width="8" height="8" fill="#000000" opacity="0.85"/><rect x="466" y="88" width="8" height="8" fill="#000000" opacity="0.85"/><rect x="458" y="88" width="8" height="8" fill="#000000" opacity="0.85"/><rect x="450" y="88" width="8" height="8" fill="#000000" opacity="0.85"/><rect x="490" y="96" width="8" height="8" fill="#000000" opacity="0.85"/><rect x="482" y="96" width="8" height="8" fill="#000000" opacity="0.85"/><rect x="474" y="96" width="8" height="8" fill="#000000" opacity="0.85"/><rect x="466" y="96" width="8" height="8" fill="#000000" opacity="0.85"/><rect x="458" y="96" width="8" height="8" fill="#000000" opacity="0.85"/><rect x="450" y="96" width="8" height="8" fill="#000000" opacity="0.85"/><rect x="498" y="104" width="8" height="8" fill="#000000" opacity="0.85"/><rect x="490" y="104" width="8" height="8" fill="#000000" opacity="0.85"/><rect x="482" y="104" width="8" height="8" fill="#000000" opacity="0.85"/><rect x="474" y="104" width="8" height="8" fill="#000000" opacity="0.85"/><rect x="466" y="104" width="8" height="8" fill="#000000" opacity="0.85"/><rect x="458" y="104" width="8" height="8" fill="#000000" opacity="0.85"/><rect x="450" y="104" width="8" height="8" fill="#000000" opacity="0.85"/><rect x="442" y="104" width="8" height="8" fill="#000000" opacity="0.85"/><rect x="498" y="112" width="8" height="8" fill="#000000" opacity="0.85"/><rect x="490" y="112" width="8" height="8" fill="#000000" opacity="0.85"/><rect x="482" y="112" width="8" height="8" fill="#000000" opacity="0.85"/><rect x="474" y="112" width="8" height="8" fill="#000000" opacity="0.85"/><rect x="466" y="112" width="8" height="8" fill="#000000" opacity="0.85"/><rect x="458" y="112" width="8" height="8" fill="#000000" opacity="0.85"/><rect x="450" y="112" width="8" height="8" fill="#000000" opacity="0.85"/><rect x="442" y="112" width="8" height="8" fill="#000000" opacity="0.85"/><rect x="498" y="120" width="8" height="8" fill="#000000" opacity="0.85"/><rect x="490" y="120" width="8" height="8" fill="#000000" opacity="0.85"/><rect x="482" y="120" width="8" height="8" fill="#000000" opacity="0.85"/><rect x="474" y="120" width="8" height="8" fill="#000000" opacity="0.85"/><rect x="466" y="120" width="8" height="8" fill="#000000" opacity="0.85"/><rect x="458" y="120" width="8" height="8" fill="#000000" opacity="0.85"/><rect x="450" y="120" width="8" height="8" fill="#000000" opacity="0.85"/><rect x="442" y="120" width="8" height="8" fill="#000000" opacity="0.85"/><rect x="498" y="128" width="8" height="8" fill="#000000" opacity="0.85"/><rect x="490" y="128" width="8" height="8" fill="#000000" opacity="0.85"/><rect x="482" y="128" width="8" height="8" fill="#000000" opacity="0.85"/><rect x="474" y="128" width="8" height="8" fill="#000000" opacity="0.85"/><rect x="466" y="128" width="8" height="8" fill="#000000" opacity="0.85"/><rect x="458" y="128" width="8" height="8" fill="#000000" opacity="0.85"/><rect x="450" y="128" width="8" height="8" fill="#000000" opacity="0.85"/><rect x="442" y="128" width="8" height="8" fill="#000000" opacity="0.85"/><rect x="506" y="136" width="8" height="8" fill="#000000" opacity="0.85"/><rect x="498" y="136" width="8" height="8" fill="#000000" opacity="0.85"/><rect x="490" y="136" width="8" height="8" fill="#000000" opacity="0.85"/><rect x="482" y="136" width="8" height="8" fill="#000000" opacity="0.85"/><rect x="474" y="136" width="8" height="8" fill="#000000" opacity="0.85"/><rect x="466" y="136" width="8" height="8" fill="#000000" opacity="0.85"/><rect x="458" y="136" width="8" height="8" fill="#000000" opacity="0.85"/><rect x="450" y="136" width="8" height="8" fill="#000000" opacity="0.85"/><rect x="442" y="136" width="8" height="8" fill="#000000" opacity="0.85"/><rect x="434" y="136" width="8" height="8" fill="#000000" opacity="0.85"/><rect x="506" y="144" width="8" height="8" fill="#000000" opacity="0.85"/><rect x="498" y="144" width="8" height="8" fill="#000000" opacity="0.85"/><rect x="490" y="144" width="8" height="8" fill="#111111" opacity="0.85"/><rect x="482" y="144" width="8" height="8" fill="#000000" opacity="0.85"/><rect x="474" y="144" width="8" height="8" fill="#000000" opacity="0.85"/><rect x="466" y="144" width="8" height="8" fill="#000000" opacity="0.85"/><rect x="458" y="144" width="8" height="8" fill="#000000" opacity="0.85"/><rect x="450" y="144" width="8" height="8" fill="#111111" opacity="0.85"/><rect x="442" y="144" width="8" height="8" fill="#000000" opacity="0.85"/><rect x="434" y="144" width="8" height="8" fill="#000000" opacity="0.85"/><rect x="506" y="152" width="8" height="8" fill="#000000" opacity="0.85"/><rect x="498" y="152" width="8" height="8" fill="#000000" opacity="0.85"/><rect x="490" y="152" width="8" height="8" fill="#111111" opacity="0.85"/><rect x="482" y="152" width="8" height="8" fill="#000000" opacity="0.85"/><rect x="474" y="152" width="8" height="8" fill="#000000" opacity="0.85"/><rect x="466" y="152" width="8" height="8" fill="#000000" opacity="0.85"/><rect x="458" y="152" width="8" height="8" fill="#000000" opacity="0.85"/><rect x="450" y="152" width="8" height="8" fill="#111111" opacity="0.85"/><rect x="442" y="152" width="8" height="8" fill="#000000" opacity="0.85"/><rect x="434" y="152" width="8" height="8" fill="#000000" opacity="0.85"/><rect x="498" y="160" width="8" height="8" fill="#000000" opacity="0.85"/><rect x="490" y="160" width="8" height="8" fill="#111111" opacity="0.85"/><rect x="482" y="160" width="8" height="8" fill="#111111" opacity="0.85"/><rect x="474" y="160" width="8" height="8" fill="#000000" opacity="0.85"/><rect x="466" y="160" width="8" height="8" fill="#000000" opacity="0.85"/><rect x="458" y="160" width="8" height="8" fill="#111111" opacity="0.85"/><rect x="450" y="160" width="8" height="8" fill="#111111" opacity="0.85"/><rect x="442" y="160" width="8" height="8" fill="#000000" opacity="0.85"/><rect x="490" y="168" width="8" height="8" fill="#000000" opacity="0.85"/><rect x="482" y="168" width="8" height="8" fill="#000000" opacity="0.85"/><rect x="474" y="168" width="8" height="8" fill="#000000" opacity="0.85"/><rect x="466" y="168" width="8" height="8" fill="#000000" opacity="0.85"/><rect x="458" y="168" width="8" height="8" fill="#000000" opacity="0.85"/><rect x="450" y="168" width="8" height="8" fill="#000000" opacity="0.85"/><rect x="490" y="176" width="8" height="8" fill="#000000" opacity="0.85"/><rect x="482" y="176" width="8" height="8" fill="#000000" opacity="0.85"/><rect x="474" y="176" width="8" height="8" fill="#000000" opacity="0.85"/><rect x="466" y="176" width="8" height="8" fill="#000000" opacity="0.85"/><rect x="458" y="176" width="8" height="8" fill="#000000" opacity="0.85"/><rect x="450" y="176" width="8" height="8" fill="#000000" opacity="0.85"/><rect x="490" y="184" width="8" height="8" fill="#000000" opacity="0.85"/><rect x="482" y="184" width="8" height="8" fill="#000000" opacity="0.85"/><rect x="458" y="184" width="8" height="8" fill="#000000" opacity="0.85"/><rect x="450" y="184" width="8" height="8" fill="#000000" opacity="0.85"/><rect x="490" y="192" width="8" height="8" fill="#000000" opacity="0.85"/><rect x="482" y="192" width="8" height="8" fill="#000000" opacity="0.85"/><rect x="458" y="192" width="8" height="8" fill="#000000" opacity="0.85"/><rect x="450" y="192" width="8" height="8" fill="#000000" opacity="0.85"/><rect x="498" y="200" width="8" height="8" fill="#000000" opacity="0.85"/><rect x="490" y="200" width="8" height="8" fill="#000000" opacity="0.85"/><rect x="482" y="200" width="8" height="8" fill="#000000" opacity="0.85"/><rect x="458" y="200" width="8" height="8" fill="#000000" opacity="0.85"/><rect x="450" y="200" width="8" height="8" fill="#000000" opacity="0.85"/><rect x="442" y="200" width="8" height="8" fill="#000000" opacity="0.85"/><rect x="498" y="208" width="8" height="8" fill="#000000" opacity="0.85"/><rect x="490" y="208" width="8" height="8" fill="#000000" opacity="0.85"/><rect x="482" y="208" width="8" height="8" fill="#000000" opacity="0.85"/><rect x="458" y="208" width="8" height="8" fill="#000000" opacity="0.85"/><rect x="450" y="208" width="8" height="8" fill="#000000" opacity="0.85"/><rect x="442" y="208" width="8" height="8" fill="#000000" opacity="0.85"/><rect x="490" y="64" width="8" height="8" fill="#ff3333" opacity="0.9"/><rect x="488" y="62" width="12" height="12" fill="#ff0000" opacity="0.15"/><rect x="450" y="64" width="8" height="8" fill="#ff3333" opacity="0.9"/><rect x="448" y="62" width="12" height="12" fill="#ff0000" opacity="0.15"/><text x="300" y="100" text-anchor="middle" font-family="monospace" font-size="56" font-weight="bold" fill="#f0f0f0" letter-spacing="16" opacity="0.9">ERGO</text><rect x="0" y="0" width="600" height="1" fill="#000" opacity="0.12"/><rect x="0" y="3" width="600" height="1" fill="#000" opacity="0.12"/><rect x="0" y="6" width="600" height="1" fill="#000" opacity="0.12"/><rect x="0" y="9" width="600" height="1" fill="#000" opacity="0.12"/><rect x="0" y="12" width="600" height="1" fill="#000" opacity="0.12"/><rect x="0" y="15" width="600" height="1" fill="#000" opacity="0.12"/><rect x="0" y="18" width="600" height="1" fill="#000" opacity="0.12"/><rect x="0" y="21" width="600" height="1" fill="#000" opacity="0.12"/><rect x="0" y="24" width="600" height="1" fill="#000" opacity="0.12"/><rect x="0" y="27" width="600" height="1" fill="#000" opacity="0.12"/><rect x="0" y="30" width="600" height="1" fill="#000" opacity="0.12"/><rect x="0" y="33" width="600" height="1" fill="#000" opacity="0.12"/><rect x="0" y="36" width="600" height="1" fill="#000" opacity="0.12"/><rect x="0" y="39" width="600" height="1" fill="#000" opacity="0.12"/><rect x="0" y="42" width="600" height="1" fill="#000" opacity="0.12"/><rect x="0" y="45" width="600" height="1" fill="#000" opacity="0.12"/><rect x="0" y="48" width="600" height="1" fill="#000" opacity="0.12"/><rect x="0" y="51" width="600" height="1" fill="#000" opacity="0.12"/><rect x="0" y="54" width="600" height="1" fill="#000" opacity="0.12"/><rect x="0" y="57" width="600" height="1" fill="#000" opacity="0.12"/><rect x="0" y="60" width="600" height="1" fill="#000" opacity="0.12"/><rect x="0" y="63" width="600" height="1" fill="#000" opacity="0.12"/><rect x="0" y="66" width="600" height="1" fill="#000" opacity="0.12"/><rect x="0" y="69" width="600" height="1" fill="#000" opacity="0.12"/><rect x="0" y="72" width="600" height="1" fill="#000" opacity="0.12"/><rect x="0" y="75" width="600" height="1" fill="#000" opacity="0.12"/><rect x="0" y="78" width="600" height="1" fill="#000" opacity="0.12"/><rect x="0" y="81" width="600" height="1" fill="#000" opacity="0.12"/><rect x="0" y="84" width="600" height="1" fill="#000" opacity="0.12"/><rect x="0" y="87" width="600" height="1" fill="#000" opacity="0.12"/><rect x="0" y="90" width="600" height="1" fill="#000" opacity="0.12"/><rect x="0" y="93" width="600" height="1" fill="#000" opacity="0.12"/><rect x="0" y="96" width="600" height="1" fill="#000" opacity="0.12"/><rect x="0" y="99" width="600" height="1" fill="#000" opacity="0.12"/><rect x="0" y="102" width="600" height="1" fill="#000" opacity="0.12"/><rect x="0" y="105" width="600" height="1" fill="#000" opacity="0.12"/><rect x="0" y="108" width="600" height="1" fill="#000" opacity="0.12"/><rect x="0" y="111" width="600" height="1" fill="#000" opacity="0.12"/><rect x="0" y="114" width="600" height="1" fill="#000" opacity="0.12"/><rect x="0" y="117" width="600" height="1" fill="#000" opacity="0.12"/><rect x="0" y="120" width="600" height="1" fill="#000" opacity="0.12"/><rect x="0" y="123" width="600" height="1" fill="#000" opacity="0.12"/><rect x="0" y="126" width="600" height="1" fill="#000" opacity="0.12"/><rect x="0" y="129" width="600" height="1" fill="#000" opacity="0.12"/><rect x="0" y="132" width="600" height="1" fill="#000" opacity="0.12"/><rect x="0" y="135" width="600" height="1" fill="#000" opacity="0.12"/><rect x="0" y="138" width="600" height="1" fill="#000" opacity="0.12"/><rect x="0" y="141" width="600" height="1" fill="#000" opacity="0.12"/><rect x="0" y="144" width="600" height="1" fill="#000" opacity="0.12"/><rect x="0" y="147" width="600" height="1" fill="#000" opacity="0.12"/><rect x="0" y="150" width="600" height="1" fill="#000" opacity="0.12"/><rect x="0" y="153" width="600" height="1" fill="#000" opacity="0.12"/><rect x="0" y="156" width="600" height="1" fill="#000" opacity="0.12"/><rect x="0" y="159" width="600" height="1" fill="#000" opacity="0.12"/><rect x="0" y="162" width="600" height="1" fill="#000" opacity="0.12"/><rect x="0" y="165" width="600" height="1" fill="#000" opacity="0.12"/><rect x="0" y="168" width="600" height="1" fill="#000" opacity="0.12"/><rect x="0" y="171" width="600" height="1" fill="#000" opacity="0.12"/><rect x="0" y="174" width="600" height="1" fill="#000" opacity="0.12"/><rect x="0" y="177" width="600" height="1" fill="#000" opacity="0.12"/><rect x="0" y="180" width="600" height="1" fill="#000" opacity="0.12"/><rect x="0" y="183" width="600" height="1" fill="#000" opacity="0.12"/><rect x="0" y="186" width="600" height="1" fill="#000" opacity="0.12"/><rect x="0" y="189" width="600" height="1" fill="#000" opacity="0.12"/><rect x="0" y="192" width="600" height="1" fill="#000" opacity="0.12"/><rect x="0" y="195" width="600" height="1" fill="#000" opacity="0.12"/><rect x="0" y="198" width="600" height="1" fill="#000" opacity="0.12"/><rect x="0" y="201" width="600" height="1" fill="#000" opacity="0.12"/><rect x="0" y="204" width="600" height="1" fill="#000" opacity="0.12"/><rect x="0" y="207" width="600" height="1" fill="#000" opacity="0.12"/><rect x="0" y="210" width="600" height="1" fill="#000" opacity="0.12"/><rect x="0" y="213" width="600" height="1" fill="#000" opacity="0.12"/><rect x="0" y="216" width="600" height="1" fill="#000" opacity="0.12"/><rect x="0" y="219" width="600" height="1" fill="#000" opacity="0.12"/><rect x="0" y="222" width="600" height="1" fill="#000" opacity="0.12"/><rect x="0" y="225" width="600" height="1" fill="#000" opacity="0.12"/><rect x="0" y="228" width="600" height="1" fill="#000" opacity="0.12"/><rect x="0" y="231" width="600" height="1" fill="#000" opacity="0.12"/><rect x="0" y="234" width="600" height="1" fill="#000" opacity="0.12"/><rect x="0" y="237" width="600" height="1" fill="#000" opacity="0.12"/></svg>