<svg xmlns="http://www.w3.org/2000/svg" width="584" height="204" viewBox="0 0 584 204" shape-rendering="crispEdges"><rect width="584" height="204" fill="#0a0a14"/><rect x="0" y="0" width="584" height="1" fill="#000" opacity="0.15"/><rect x="0" y="4" width="584" height="1" fill="#000" opacity="0.15"/><rect x="0" y="8" width="584" height="1" fill="#000" opacity="0.15"/><rect x="0" y="12" width="584" height="1" fill="#000" opacity="0.15"/><rect x="0" y="16" width="584" height="1" fill="#000" opacity="0.15"/><rect x="0" y="20" width="584" height="1" fill="#000" opacity="0.15"/><rect x="0" y="24" width="584" height="1" fill="#000" opacity="0.15"/><rect x="0" y="28" width="584" height="1" fill="#000" opacity="0.15"/><rect x="0" y="32" width="584" height="1" fill="#000" opacity="0.15"/><rect x="0" y="36" width="584" height="1" fill="#000" opacity="0.15"/><rect x="0" y="40" width="584" height="1" fill="#000" opacity="0.15"/><rect x="0" y="44" width="584" height="1" fill="#000" opacity="0.15"/><rect x="0" y="48" width="584" height="1" fill="#000" opacity="0.15"/><rect x="0" y="52" width="584" height="1" fill="#000" opacity="0.15"/><rect x="0" y="56" width="584" height="1" fill="#000" opacity="0.15"/><rect x="0" y="60" width="584" height="1" fill="#000" opacity="0.15"/><rect x="0" y="64" width="584" height="1" fill="#000" opacity="0.15"/><rect x="0" y="68" width="584" height="1" fill="#000" opacity="0.15"/><rect x="0" y="72" width="584" height="1" fill="#000" opacity="0.15"/><rect x="0" y="76" width="584" height="1" fill="#000" opacity="0.15"/><rect x="0" y="80" width="584" height="1" fill="#000" opacity="0.15"/><rect x="0" y="84" width="584" height="1" fill="#000" opacity="0.15"/><rect x="0" y="88" width="584" height="1" fill="#000" opacity="0.15"/><rect x="0" y="92" width="584" height="1" fill="#000" opacity="0.15"/><rect x="0" y="96" width="584" height="1" fill="#000" opacity="0.15"/><rect x="0" y="100" width="584" height="1" fill="#000" opacity="0.15"/><rect x="0" y="104" width="584" height="1" fill="#000" opacity="0.15"/><rect x="0" y="108" width="584" height="1" fill="#000" opacity="0.15"/><rect x="0" y="112" width="584" height="1" fill="#000" opacity="0.15"/><rect x="0" y="116" width="584" height="1" fill="#000" opacity="0.15"/><rect x="0" y="120" width="584" height="1" fill="#000" opacity="0.15"/><rect x="0" y="124" width="584" height="1" fill="#000" opacity="0.15"/><rect x="0" y="128" width="584" height="1" fill="#000" opacity="0.15"/><rect x="0" y="132" width="584" height="1" fill="#000" opacity="0.15"/><rect x="0" y="136" width="584" height="1" fill="#000" opacity="0.15"/><rect x="0" y="140" width="584" height="1" fill="#000" opacity="0.15"/><rect x="0" y="144" width="584" height="1" fill="#000" opacity="0.15"/><rect x="0" y="148" width="584" height="1" fill="#000" opacity="0.15"/><rect x="0" y="152" width="584" height="1" fill="#000" opacity="0.15"/><rect x="0" y="156" width="584" height="1" fill="#000" opacity="0.15"/><rect x="0" y="160" width="584" height="1" fill="#000" opacity="0.15"/><rect x="0" y="164" width="584" height="1" fill="#000" opacity="0.15"/><rect x="0" y="168" width="584" height="1" fill="#000" opacity="0.15"/><rect x="0" y="172" width="584" height="1" fill="#000" opacity="0.15"/><rect x="0" y="176" width="584" height="1" fill="#000" opacity="0.15"/><rect x="0" y="180" width="584" height="1" fill="#000" opacity="0.15"/><rect x="0" y="184" width="584" height="1" fill="#000" opacity="0.15"/><rect x="0" y="188" width="584" height="1" fill="#000" opacity="0.15"/><rect x="0" y="192" width="584" height="1" fill="#000" opacity="0.15"/><rect x="0" y="196" width="584" height="1" fill="#000" opacity="0.15"/><rect x="0" y="200" width="584" height="1" fill="#000" opacity="0.15"/><rect x="70" y="16" width="6" height="6" fill="#4a3728"/><rect x="76" y="16" width="6" height="6" fill="#4a3728"/><rect x="82" y="16" width="6" height="6" fill="#4a3728"/><rect x="88" y="16" width="6" height="6" fill="#4a3728"/><rect x="94" y="16" width="6" height="6" fill="#4a3728"/><rect x="100" y="16" width="6" height="6" fill="#4a3728"/><rect x="64" y="22" width="6" height="6" fill="#4a3728"/><rect x="70" y="22" width="6" height="6" fill="#4a3728"/><rect x="76" y="22" width="6" height="6" fill="#4a3728"/><rect x="82" y="22" width="6" height="6" fill="#4a3728"/><rect x="88" y="22" width="6" height="6" fill="#4a3728"/><rect x="94" y="22" width="6" height="6" fill="#4a3728"/><rect x="100" y="22" width="6" height="6" fill="#4a3728"/><rect x="106" y="22" width="6" height="6" fill="#4a3728"/><rect x="58" y="28" width="6" height="6" fill="#4a3728"/><rect x="64" y="28" width="6" height="6" fill="#4a3728"/><rect x="70" y="28" width="6" height="6" fill="#2a1a0a"/><rect x="76" y="28" width="6" height="6" fill="#4a3728"/><rect x="82" y="28" width="6" height="6" fill="#4a3728"/><rect x="88" y="28" width="6" height="6" fill="#4a3728"/><rect x="94" y="28" width="6" height="6" fill="#4a3728"/><rect x="100" y="28" width="6" height="6" fill="#2a1a0a"/><rect x="106" y="28" width="6" height="6" fill="#4a3728"/><rect x="112" y="28" width="6" height="6" fill="#4a3728"/><rect x="58" y="34" width="6" height="6" fill="#4a3728"/><rect x="64" y="34" width="6" height="6" fill="#4a3728"/><rect x="70" y="34" width="6" height="6" fill="#4a3728"/><rect x="76" y="34" width="6" height="6" fill="#4a3728"/><rect x="82" y="34" width="6" height="6" fill="#4a3728"/><rect x="88" y="34" width="6" height="6" fill="#4a3728"/><rect x="94" y="34" width="6" height="6" fill="#4a3728"/><rect x="100" y="34" width="6" height="6" fill="#4a3728"/><rect x="106" y="34" width="6" height="6" fill="#4a3728"/><rect x="112" y="34" width="6" height="6" fill="#4a3728"/><rect x="58" y="40" width="6" height="6" fill="#4a3728"/><rect x="64" y="40" width="6" height="6" fill="#f5deb3"/><rect x="70" y="40" width="6" height="6" fill="#f5deb3"/><rect x="76" y="40" width="6" height="6" fill="#f5deb3"/><rect x="82" y="40" width="6" height="6" fill="#f5deb3"/><rect x="88" y="40" width="6" height="6" fill="#f5deb3"/><rect x="94" y="40" width="6" height="6" fill="#f5deb3"/><rect x="100" y="40" width="6" height="6" fill="#f5deb3"/><rect x="106" y="40" width="6" height="6" fill="#f5deb3"/><rect x="112" y="40" width="6" height="6" fill="#4a3728"/><rect x="64" y="46" width="6" height="6" fill="#f5deb3"/><rect x="70" y="46" width="6" height="6" fill="#2a1a0a"/><rect x="76" y="46" width="6" height="6" fill="#f5deb3"/><rect x="82" y="46" width="6" height="6" fill="#f5deb3"/><rect x="88" y="46" width="6" height="6" fill="#f5deb3"/><rect x="94" y="46" width="6" height="6" fill="#f5deb3"/><rect x="100" y="46" width="6" height="6" fill="#2a1a0a"/><rect x="106" y="46" width="6" height="6" fill="#f5deb3"/><rect x="64" y="52" width="6" height="6" fill="#f5deb3"/><rect x="70" y="52" width="6" height="6" fill="#f5deb3"/><rect x="76" y="52" width="6" height="6" fill="#f5deb3"/><rect x="82" y="52" width="6" height="6" fill="#f5deb3"/><rect x="88" y="52" width="6" height="6" fill="#f5deb3"/><rect x="94" y="52" width="6" height="6" fill="#f5deb3"/><rect x="100" y="52" width="6" height="6" fill="#f5deb3"/><rect x="106" y="52" width="6" height="6" fill="#f5deb3"/><rect x="64" y="58" width="6" height="6" fill="#f5deb3"/><rect x="70" y="58" width="6" height="6" fill="#f5deb3"/><rect x="76" y="58" width="6" height="6" fill="#f5deb3"/><rect x="82" y="58" width="6" height="6" fill="#e0c8a0"/><rect x="88" y="58" width="6" height="6" fill="#e0c8a0"/><rect x="94" y="58" width="6" height="6" fill="#f5deb3"/><rect x="100" y="58" width="6" height="6" fill="#f5deb3"/><rect x="106" y="58" width="6" height="6" fill="#f5deb3"/><rect x="70" y="64" width="6" height="6" fill="#f5deb3"/><rect x="76" y="64" width="6" height="6" fill="#f5deb3"/><rect x="82" y="64" width="6" height="6" fill="#f5deb3"/><rect x="88" y="64" width="6" height="6" fill="#f5deb3"/><rect x="94" y="64" width="6" height="6" fill="#f5deb3"/><rect x="100" y="64" width="6" height="6" fill="#f5deb3"/><rect x="70" y="70" width="6" height="6" fill="#f0f0f0"/><rect x="76" y="70" width="6" height="6" fill="#f0f0f0"/><rect x="82" y="70" width="6" height="6" fill="#f0f0f0"/><rect x="88" y="70" width="6" height="6" fill="#f0f0f0"/><rect x="94" y="70" width="6" height="6" fill="#f0f0f0"/><rect x="100" y="70" width="6" height="6" fill="#f0f0f0"/><rect x="64" y="76" width="6" height="6" fill="#f0f0f0"/><rect x="70" y="76" width="6" height="6" fill="#f0f0f0"/><rect x="76" y="76" width="6" height="6" fill="#f0f0f0"/><rect x="82" y="76" width="6" height="6" fill="#f0f0f0"/><rect x="88" y="76" width="6" height="6" fill="#f0f0f0"/><rect x="94" y="76" width="6" height="6" fill="#f0f0f0"/><rect x="100" y="76" width="6" height="6" fill="#f0f0f0"/><rect x="106" y="76" width="6" height="6" fill="#f0f0f0"/><rect x="64" y="82" width="6" height="6" fill="#f0f0f0"/><rect x="70" y="82" width="6" height="6" fill="#f0f0f0"/><rect x="76" y="82" width="6" height="6" fill="#f0f0f0"/><rect x="82" y="82" width="6" height="6" fill="#f0f0f0"/><rect x="88" y="82" width="6" height="6" fill="#f0f0f0"/><rect x="94" y="82" width="6" height="6" fill="#f0f0f0"/><rect x="100" y="82" width="6" height="6" fill="#f0f0f0"/><rect x="106" y="82" width="6" height="6" fill="#f0f0f0"/><rect x="64" y="88" width="6" height="6" fill="#f0f0f0"/><rect x="70" y="88" width="6" height="6" fill="#f0f0f0"/><rect x="76" y="88" width="6" height="6" fill="#f0f0f0"/><rect x="82" y="88" width="6" height="6" fill="#f0f0f0"/><rect x="88" y="88" width="6" height="6" fill="#f0f0f0"/><rect x="94" y="88" width="6" height="6" fill="#f0f0f0"/><rect x="100" y="88" width="6" height="6" fill="#f0f0f0"/><rect x="106" y="88" width="6" height="6" fill="#f0f0f0"/><rect x="64" y="94" width="6" height="6" fill="#f0f0f0"/><rect x="70" y="94" width="6" height="6" fill="#f0f0f0"/><rect x="76" y="94" width="6" height="6" fill="#f0f0f0"/><rect x="82" y="94" width="6" height="6" fill="#f0f0f0"/><rect x="88" y="94" width="6" height="6" fill="#f0f0f0"/><rect x="94" y="94" width="6" height="6" fill="#f0f0f0"/><rect x="100" y="94" width="6" height="6" fill="#f0f0f0"/><rect x="106" y="94" width="6" height="6" fill="#f0f0f0"/><rect x="58" y="100" width="6" height="6" fill="#f5deb3"/><rect x="64" y="100" width="6" height="6" fill="#f0f0f0"/><rect x="70" y="100" width="6" height="6" fill="#f0f0f0"/><rect x="76" y="100" width="6" height="6" fill="#f0f0f0"/><rect x="82" y="100" width="6" height="6" fill="#f0f0f0"/><rect x="88" y="100" width="6" height="6" fill="#f0f0f0"/><rect x="94" y="100" width="6" height="6" fill="#f0f0f0"/><rect x="100" y="100" width="6" height="6" fill="#f0f0f0"/><rect x="106" y="100" width="6" height="6" fill="#f0f0f0"/><rect x="112" y="100" width="6" height="6" fill="#f5deb3"/><rect x="58" y="106" width="6" height="6" fill="#f5deb3"/><rect x="64" y="106" width="6" height="6" fill="#f0f0f0"/><rect x="70" y="106" width="6" height="6" fill="#d0d0d0"/><rect x="76" y="106" width="6" height="6" fill="#f0f0f0"/><rect x="82" y="106" width="6" height="6" fill="#f0f0f0"/><rect x="88" y="106" width="6" height="6" fill="#f0f0f0"/><rect x="94" y="106" width="6" height="6" fill="#f0f0f0"/><rect x="100" y="106" width="6" height="6" fill="#d0d0d0"/><rect x="106" y="106" width="6" height="6" fill="#f0f0f0"/><rect x="112" y="106" width="6" height="6" fill="#f5deb3"/><rect x="58" y="112" width="6" height="6" fill="#f5deb3"/><rect x="64" y="112" width="6" height="6" fill="#f5deb3"/><rect x="70" y="112" width="6" height="6" fill="#d0d0d0"/><rect x="76" y="112" width="6" height="6" fill="#f0f0f0"/><rect x="82" y="112" width="6" height="6" fill="#f0f0f0"/><rect x="88" y="112" width="6" height="6" fill="#f0f0f0"/><rect x="94" y="112" width="6" height="6" fill="#f0f0f0"/><rect x="100" y="112" width="6" height="6" fill="#d0d0d0"/><rect x="106" y="112" width="6" height="6" fill="#f5deb3"/><rect x="112" y="112" width="6" height="6" fill="#f5deb3"/><rect x="64" y="118" width="6" height="6" fill="#f5deb3"/><rect x="70" y="118" width="6" height="6" fill="#d0d0d0"/><rect x="76" y="118" width="6" height="6" fill="#d0d0d0"/><rect x="82" y="118" width="6" height="6" fill="#f0f0f0"/><rect x="88" y="118" width="6" height="6" fill="#f0f0f0"/><rect x="94" y="118" width="6" height="6" fill="#d0d0d0"/><rect x="100" y="118" width="6" height="6" fill="#d0d0d0"/><rect x="106" y="118" width="6" height="6" fill="#f5deb3"/><rect x="70" y="124" width="6" height="6" fill="#f0f0f0"/><rect x="76" y="124" width="6" height="6" fill="#f0f0f0"/><rect x="82" y="124" width="6" height="6" fill="#f0f0f0"/><rect x="88" y="124" width="6" height="6" fill="#f0f0f0"/><rect x="94" y="124" width="6" height="6" fill="#f0f0f0"/><rect x="100" y="124" width="6" height="6" fill="#f0f0f0"/><rect x="70" y="130" width="6" height="6" fill="#f0f0f0"/><rect x="76" y="130" width="6" height="6" fill="#f0f0f0"/><rect x="82" y="130" width="6" height="6" fill="#f0f0f0"/><rect x="88" y="130" width="6" height="6" fill="#f0f0f0"/><rect x="94" y="130" width="6" height="6" fill="#f0f0f0"/><rect x="100" y="130" width="6" height="6" fill="#f0f0f0"/><rect x="70" y="136" width="6" height="6" fill="#f0f0f0"/><rect x="76" y="136" width="6" height="6" fill="#f0f0f0"/><rect x="94" y="136" width="6" height="6" fill="#f0f0f0"/><rect x="100" y="136" width="6" height="6" fill="#f0f0f0"/><rect x="70" y="142" width="6" height="6" fill="#f0f0f0"/><rect x="76" y="142" width="6" height="6" fill="#f0f0f0"/><rect x="94" y="142" width="6" height="6" fill="#f0f0f0"/><rect x="100" y="142" width="6" height="6" fill="#f0f0f0"/><rect x="64" y="148" width="6" height="6" fill="#f5deb3"/><rect x="70" y="148" width="6" height="6" fill="#f5deb3"/><rect x="76" y="148" width="6" height="6" fill="#f5deb3"/><rect x="94" y="148" width="6" height="6" fill="#f5deb3"/><rect x="100" y="148" width="6" height="6" fill="#f5deb3"/><rect x="106" y="148" width="6" height="6" fill="#f5deb3"/><rect x="64" y="154" width="6" height="6" fill="#f5deb3"/><rect x="70" y="154" width="6" height="6" fill="#f5deb3"/><rect x="76" y="154" width="6" height="6" fill="#f5deb3"/><rect x="94" y="154" width="6" height="6" fill="#f5deb3"/><rect x="100" y="154" width="6" height="6" fill="#f5deb3"/><rect x="106" y="154" width="6" height="6" fill="#f5deb3"/><text x="88" y="196" text-anchor="middle" font-family="monospace" font-size="11" fill="#808080">Мила</text><rect x="206" y="16" width="6" height="6" fill="#1a0a0a"/><rect x="212" y="16" width="6" height="6" fill="#1a0a0a"/><rect x="218" y="16" width="6" height="6" fill="#1a0a0a"/><rect x="224" y="16" width="6" height="6" fill="#1a0a0a"/><rect x="230" y="16" width="6" height="6" fill="#1a0a0a"/><rect x="236" y="16" width="6" height="6" fill="#1a0a0a"/><rect x="200" y="22" width="6" height="6" fill="#1a0a0a"/><rect x="206" y="22" width="6" height="6" fill="#1a0a0a"/><rect x="212" y="22" width="6" height="6" fill="#1a0a0a"/><rect x="218" y="22" width="6" height="6" fill="#1a0a0a"/><rect x="224" y="22" width="6" height="6" fill="#1a0a0a"/><rect x="230" y="22" width="6" height="6" fill="#1a0a0a"/><rect x="236" y="22" width="6" height="6" fill="#1a0a0a"/><rect x="242" y="22" width="6" height="6" fill="#1a0a0a"/><rect x="194" y="28" width="6" height="6" fill="#1a0a0a"/><rect x="200" y="28" width="6" height="6" fill="#1a0a0a"/><rect x="206" y="28" width="6" height="6" fill="#1a0a0a"/><rect x="212" y="28" width="6" height="6" fill="#1a0a0a"/><rect x="218" y="28" width="6" height="6" fill="#1a0a0a"/><rect x="224" y="28" width="6" height="6" fill="#1a0a0a"/><rect x="230" y="28" width="6" height="6" fill="#1a0a0a"/><rect x="236" y="28" width="6" height="6" fill="#1a0a0a"/><rect x="242" y="28" width="6" height="6" fill="#1a0a0a"/><rect x="248" y="28" width="6" height="6" fill="#1a0a0a"/><rect x="194" y="34" width="6" height="6" fill="#1a0a0a"/><rect x="200" y="34" width="6" height="6" fill="#1a0a0a"/><rect x="206" y="34" width="6" height="6" fill="#1a0a0a"/><rect x="212" y="34" width="6" height="6" fill="#1a0a0a"/><rect x="218" y="34" width="6" height="6" fill="#1a0a0a"/><rect x="224" y="34" width="6" height="6" fill="#1a0a0a"/><rect x="230" y="34" width="6" height="6" fill="#1a0a0a"/><rect x="236" y="34" width="6" height="6" fill="#1a0a0a"/><rect x="242" y="34" width="6" height="6" fill="#1a0a0a"/><rect x="248" y="34" width="6" height="6" fill="#1a0a0a"/><rect x="194" y="40" width="6" height="6" fill="#1a0a0a"/><rect x="200" y="40" width="6" height="6" fill="#0f0505"/><rect x="206" y="40" width="6" height="6" fill="#0f0505"/><rect x="212" y="40" width="6" height="6" fill="#0f0505"/><rect x="218" y="40" width="6" height="6" fill="#1a0a0a"/><rect x="224" y="40" width="6" height="6" fill="#1a0a0a"/><rect x="230" y="40" width="6" height="6" fill="#0f0505"/><rect x="236" y="40" width="6" height="6" fill="#0f0505"/><rect x="242" y="40" width="6" height="6" fill="#0f0505"/><rect x="248" y="40" width="6" height="6" fill="#1a0a0a"/><rect x="200" y="46" width="6" height="6" fill="#1a0a0a"/><rect x="203" y="43" width="12" height="12" fill="#ff0000" opacity="0.2"/><rect x="206" y="46" width="6" height="6" fill="#ff2222" opacity="0.95"/><rect x="212" y="46" width="6" height="6" fill="#1a0a0a"/><rect x="218" y="46" width="6" height="6" fill="#1a0a0a"/><rect x="224" y="46" width="6" height="6" fill="#1a0a0a"/><rect x="230" y="46" width="6" height="6" fill="#1a0a0a"/><rect x="233" y="43" width="12" height="12" fill="#ff0000" opacity="0.2"/><rect x="236" y="46" width="6" height="6" fill="#ff2222" opacity="0.95"/><rect x="242" y="46" width="6" height="6" fill="#1a0a0a"/><rect x="200" y="52" width="6" height="6" fill="#1a0a0a"/><rect x="206" y="52" width="6" height="6" fill="#1a0a0a"/><rect x="212" y="52" width="6" height="6" fill="#1a0a0a"/><rect x="218" y="52" width="6" height="6" fill="#1a0a0a"/><rect x="224" y="52" width="6" height="6" fill="#1a0a0a"/><rect x="230" y="52" width="6" height="6" fill="#1a0a0a"/><rect x="236" y="52" width="6" height="6" fill="#1a0a0a"/><rect x="242" y="52" width="6" height="6" fill="#1a0a0a"/><rect x="200" y="58" width="6" height="6" fill="#1a0a0a"/><rect x="206" y="58" width="6" height="6" fill="#1a0a0a"/><rect x="212" y="58" width="6" height="6" fill="#1a0a0a"/><rect x="218" y="58" width="6" height="6" fill="#110808"/><rect x="224" y="58" width="6" height="6" fill="#110808"/><rect x="230" y="58" width="6" height="6" fill="#1a0a0a"/><rect x="236" y="58" width="6" height="6" fill="#1a0a0a"/><rect x="242" y="58" width="6" height="6" fill="#1a0a0a"/><rect x="206" y="64" width="6" height="6" fill="#1a0a0a"/><rect x="212" y="64" width="6" height="6" fill="#1a0a0a"/><rect x="218" y="64" width="6" height="6" fill="#1a0a0a"/><rect x="224" y="64" width="6" height="6" fill="#1a0a0a"/><rect x="230" y="64" width="6" height="6" fill="#1a0a0a"/><rect x="236" y="64" width="6" height="6" fill="#1a0a0a"/><rect x="206" y="70" width="6" height="6" fill="#1a0a0a"/><rect x="212" y="70" width="6" height="6" fill="#1a0a0a"/><rect x="218" y="70" width="6" height="6" fill="#1a0a0a"/><rect x="224" y="70" width="6" height="6" fill="#1a0a0a"/><rect x="230" y="70" width="6" height="6" fill="#1a0a0a"/><rect x="236" y="70" width="6" height="6" fill="#1a0a0a"/><rect x="200" y="76" width="6" height="6" fill="#1a0a0a"/><rect x="206" y="76" width="6" height="6" fill="#1a0a0a"/><rect x="212" y="76" width="6" height="6" fill="#1a0a0a"/><rect x="218" y="76" width="6" height="6" fill="#1a0a0a"/><rect x="224" y="76" width="6" height="6" fill="#1a0a0a"/><rect x="230" y="76" width="6" height="6" fill="#1a0a0a"/><rect x="236" y="76" width="6" height="6" fill="#1a0a0a"/><rect x="242" y="76" width="6" height="6" fill="#1a0a0a"/><rect x="200" y="82" width="6" height="6" fill="#1a0a0a"/><rect x="206" y="82" width="6" height="6" fill="#1a0a0a"/><rect x="212" y="82" width="6" height="6" fill="#1a0a0a"/><rect x="218" y="82" width="6" height="6" fill="#1a0a0a"/><rect x="224" y="82" width="6" height="6" fill="#1a0a0a"/><rect x="230" y="82" width="6" height="6" fill="#1a0a0a"/><rect x="236" y="82" width="6" height="6" fill="#1a0a0a"/><rect x="242" y="82" width="6" height="6" fill="#1a0a0a"/><rect x="200" y="88" width="6" height="6" fill="#1a0a0a"/><rect x="206" y="88" width="6" height="6" fill="#1a0a0a"/><rect x="212" y="88" width="6" height="6" fill="#1a0a0a"/><rect x="218" y="88" width="6" height="6" fill="#1a0a0a"/><rect x="224" y="88" width="6" height="6" fill="#1a0a0a"/><rect x="230" y="88" width="6" height="6" fill="#1a0a0a"/><rect x="236" y="88" width="6" height="6" fill="#1a0a0a"/><rect x="242" y="88" width="6" height="6" fill="#1a0a0a"/><rect x="200" y="94" width="6" height="6" fill="#1a0a0a"/><rect x="206" y="94" width="6" height="6" fill="#1a0a0a"/><rect x="212" y="94" width="6" height="6" fill="#1a0a0a"/><rect x="218" y="94" width="6" height="6" fill="#1a0a0a"/><rect x="224" y="94" width="6" height="6" fill="#1a0a0a"/><rect x="230" y="94" width="6" height="6" fill="#1a0a0a"/><rect x="236" y="94" width="6" height="6" fill="#1a0a0a"/><rect x="242" y="94" width="6" height="6" fill="#1a0a0a"/><rect x="194" y="100" width="6" height="6" fill="#1a0a0a"/><rect x="200" y="100" width="6" height="6" fill="#1a0a0a"/><rect x="206" y="100" width="6" height="6" fill="#1a0a0a"/><rect x="212" y="100" width="6" height="6" fill="#1a0a0a"/><rect x="218" y="100" width="6" height="6" fill="#1a0a0a"/><rect x="224" y="100" width="6" height="6" fill="#1a0a0a"/><rect x="230" y="100" width="6" height="6" fill="#1a0a0a"/><rect x="236" y="100" width="6" height="6" fill="#1a0a0a"/><rect x="242" y="100" width="6" height="6" fill="#1a0a0a"/><rect x="248" y="100" width="6" height="6" fill="#1a0a0a"/><rect x="194" y="106" width="6" height="6" fill="#1a0a0a"/><rect x="200" y="106" width="6" height="6" fill="#1a0a0a"/><rect x="206" y="106" width="6" height="6" fill="#110808"/><rect x="212" y="106" width="6" height="6" fill="#1a0a0a"/><rect x="218" y="106" width="6" height="6" fill="#1a0a0a"/><rect x="224" y="106" width="6" height="6" fill="#1a0a0a"/><rect x="230" y="106" width="6" height="6" fill="#1a0a0a"/><rect x="236" y="106" width="6" height="6" fill="#110808"/><rect x="242" y="106" width="6" height="6" fill="#1a0a0a"/><rect x="248" y="106" width="6" height="6" fill="#1a0a0a"/><rect x="194" y="112" width="6" height="6" fill="#1a0a0a"/><rect x="200" y="112" width="6" height="6" fill="#1a0a0a"/><rect x="206" y="112" width="6" height="6" fill="#110808"/><rect x="212" y="112" width="6" height="6" fill="#1a0a0a"/><rect x="218" y="112" width="6" height="6" fill="#1a0a0a"/><rect x="224" y="112" width="6" height="6" fill="#1a0a0a"/><rect x="230" y="112" width="6" height="6" fill="#1a0a0a"/><rect x="236" y="112" width="6" height="6" fill="#110808"/><rect x="242" y="112" width="6" height="6" fill="#1a0a0a"/><rect x="248" y="112" width="6" height="6" fill="#1a0a0a"/><rect x="200" y="118" width="6" height="6" fill="#1a0a0a"/><rect x="206" y="118" width="6" height="6" fill="#110808"/><rect x="212" y="118" width="6" height="6" fill="#110808"/><rect x="218" y="118" width="6" height="6" fill="#1a0a0a"/><rect x="224" y="118" width="6" height="6" fill="#1a0a0a"/><rect x="230" y="118" width="6" height="6" fill="#110808"/><rect x="236" y="118" width="6" height="6" fill="#110808"/><rect x="242" y="118" width="6" height="6" fill="#1a0a0a"/><rect x="206" y="124" width="6" height="6" fill="#1a0a0a"/><rect x="212" y="124" width="6" height="6" fill="#1a0a0a"/><rect x="218" y="124" width="6" height="6" fill="#1a0a0a"/><rect x="224" y="124" width="6" height="6" fill="#1a0a0a"/><rect x="230" y="124" width="6" height="6" fill="#1a0a0a"/><rect x="236" y="124" width="6" height="6" fill="#1a0a0a"/><rect x="206" y="130" width="6" height="6" fill="#1a0a0a"/><rect x="212" y="130" width="6" height="6" fill="#1a0a0a"/><rect x="218" y="130" width="6" height="6" fill="#1a0a0a"/><rect x="224" y="130" width="6" height="6" fill="#1a0a0a"/><rect x="230" y="130" width="6" height="6" fill="#1a0a0a"/><rect x="236" y="130" width="6" height="6" fill="#1a0a0a"/><rect x="206" y="136" width="6" height="6" fill="#1a0a0a"/><rect x="212" y="136" width="6" height="6" fill="#1a0a0a"/><rect x="230" y="136" width="6" height="6" fill="#1a0a0a"/><rect x="236" y="136" width="6" height="6" fill="#1a0a0a"/><rect x="206" y="142" width="6" height="6" fill="#1a0a0a"/><rect x="212" y="142" width="6" height="6" fill="#1a0a0a"/><rect x="230" y="142" width="6" height="6" fill="#1a0a0a"/><rect x="236" y="142" width="6" height="6" fill="#1a0a0a"/><rect x="200" y="148" width="6" height="6" fill="#1a0a0a"/><rect x="206" y="148" width="6" height="6" fill="#1a0a0a"/><rect x="212" y="148" width="6" height="6" fill="#1a0a0a"/><rect x="230" y="148" width="6" height="6" fill="#1a0a0a"/><rect x="236" y="148" width="6" height="6" fill="#1a0a0a"/><rect x="242" y="148" width="6" height="6" fill="#1a0a0a"/><rect x="200" y="154" width="6" height="6" fill="#1a0a0a"/><rect x="206" y="154" width="6" height="6" fill="#1a0a0a"/><rect x="212" y="154" width="6" height="6" fill="#1a0a0a"/><rect x="230" y="154" width="6" height="6" fill="#1a0a0a"/><rect x="236" y="154" width="6" height="6" fill="#1a0a0a"/><rect x="242" y="154" width="6" height="6" fill="#1a0a0a"/><text x="224" y="196" text-anchor="middle" font-family="monospace" font-size="11" fill="#808080">Тень</text><rect x="342" y="16" width="6" height="6" fill="#808080"/><rect x="348" y="16" width="6" height="6" fill="#808080"/><rect x="354" y="16" width="6" height="6" fill="#808080"/><rect x="360" y="16" width="6" height="6" fill="#808080"/><rect x="366" y="16" width="6" height="6" fill="#808080"/><rect x="372" y="16" width="6" height="6" fill="#808080"/><rect x="336" y="22" width="6" height="6" fill="#808080"/><rect x="342" y="22" width="6" height="6" fill="#606060"/><rect x="348" y="22" width="6" height="6" fill="#606060"/><rect x="354" y="22" width="6" height="6" fill="#606060"/><rect x="360" y="22" width="6" height="6" fill="#606060"/><rect x="366" y="22" width="6" height="6" fill="#606060"/><rect x="372" y="22" width="6" height="6" fill="#606060"/><rect x="378" y="22" width="6" height="6" fill="#808080"/><rect x="330" y="28" width="6" height="6" fill="#808080"/><rect x="336" y="28" width="6" height="6" fill="#606060"/><rect x="342" y="28" width="6" height="6" fill="#808080"/><rect x="348" y="28" width="6" height="6" fill="#606060"/><rect x="354" y="28" width="6" height="6" fill="#606060"/><rect x="360" y="28" width="6" height="6" fill="#606060"/><rect x="366" y="28" width="6" height="6" fill="#808080"/><rect x="372" y="28" width="6" height="6" fill="#606060"/><rect x="378" y="28" width="6" height="6" fill="#606060"/><rect x="384" y="28" width="6" height="6" fill="#808080"/><rect x="330" y="34" width="6" height="6" fill="#808080"/><rect x="336" y="34" width="6" height="6" fill="#606060"/><rect x="342" y="34" width="6" height="6" fill="#606060"/><rect x="348" y="34" width="6" height="6" fill="#606060"/><rect x="354" y="34" width="6" height="6" fill="#606060"/><rect x="360" y="34" width="6" height="6" fill="#606060"/><rect x="366" y="34" width="6" height="6" fill="#606060"/><rect x="372" y="34" width="6" height="6" fill="#606060"/><rect x="378" y="34" width="6" height="6" fill="#606060"/><rect x="384" y="34" width="6" height="6" fill="#808080"/><rect x="330" y="40" width="6" height="6" fill="#808080"/><rect x="336" y="40" width="6" height="6" fill="#f5deb3"/><rect x="342" y="40" width="6" height="6" fill="#f5deb3"/><rect x="348" y="40" width="6" height="6" fill="#f5deb3"/><rect x="354" y="40" width="6" height="6" fill="#f5deb3"/><rect x="360" y="40" width="6" height="6" fill="#f5deb3"/><rect x="366" y="40" width="6" height="6" fill="#f5deb3"/><rect x="372" y="40" width="6" height="6" fill="#f5deb3"/><rect x="378" y="40" width="6" height="6" fill="#f5deb3"/><rect x="384" y="40" width="6" height="6" fill="#808080"/><rect x="336" y="46" width="6" height="6" fill="#f5deb3"/><rect x="342" y="46" width="6" height="6" fill="#b0b0b0"/><rect x="348" y="46" width="6" height="6" fill="#f5deb3"/><rect x="354" y="46" width="6" height="6" fill="#f5deb3"/><rect x="360" y="46" width="6" height="6" fill="#f5deb3"/><rect x="366" y="46" width="6" height="6" fill="#f5deb3"/><rect x="372" y="46" width="6" height="6" fill="#b0b0b0"/><rect x="378" y="46" width="6" height="6" fill="#f5deb3"/><rect x="336" y="52" width="6" height="6" fill="#f5deb3"/><rect x="342" y="52" width="6" height="6" fill="#f5deb3"/><rect x="348" y="52" width="6" height="6" fill="#f5deb3"/><rect x="354" y="52" width="6" height="6" fill="#f5deb3"/><rect x="360" y="52" width="6" height="6" fill="#f5deb3"/><rect x="366" y="52" width="6" height="6" fill="#f5deb3"/><rect x="372" y="52" width="6" height="6" fill="#f5deb3"/><rect x="378" y="52" width="6" height="6" fill="#f5deb3"/><rect x="336" y="58" width="6" height="6" fill="#f5deb3"/><rect x="342" y="58" width="6" height="6" fill="#f5deb3"/><rect x="348" y="58" width="6" height="6" fill="#f5deb3"/><rect x="354" y="58" width="6" height="6" fill="#808080"/><rect x="360" y="58" width="6" height="6" fill="#808080"/><rect x="366" y="58" width="6" height="6" fill="#f5deb3"/><rect x="372" y="58" width="6" height="6" fill="#f5deb3"/><rect x="378" y="58" width="6" height="6" fill="#f5deb3"/><rect x="342" y="64" width="6" height="6" fill="#f5deb3"/><rect x="348" y="64" width="6" height="6" fill="#f5deb3"/><rect x="354" y="64" width="6" height="6" fill="#f5deb3"/><rect x="360" y="64" width="6" height="6" fill="#f5deb3"/><rect x="366" y="64" width="6" height="6" fill="#f5deb3"/><rect x="372" y="64" width="6" height="6" fill="#f5deb3"/><rect x="342" y="70" width="6" height="6" fill="#e0e0e0"/><rect x="348" y="70" width="6" height="6" fill="#e0e0e0"/><rect x="354" y="70" width="6" height="6" fill="#e0e0e0"/><rect x="360" y="70" width="6" height="6" fill="#e0e0e0"/><rect x="366" y="70" width="6" height="6" fill="#e0e0e0"/><rect x="372" y="70" width="6" height="6" fill="#e0e0e0"/><rect x="336" y="76" width="6" height="6" fill="#e0e0e0"/><rect x="342" y="76" width="6" height="6" fill="#e0e0e0"/><rect x="348" y="76" width="6" height="6" fill="#e0e0e0"/><rect x="354" y="76" width="6" height="6" fill="#e0e0e0"/><rect x="360" y="76" width="6" height="6" fill="#e0e0e0"/><rect x="366" y="76" width="6" height="6" fill="#e0e0e0"/><rect x="372" y="76" width="6" height="6" fill="#e0e0e0"/><rect x="378" y="76" width="6" height="6" fill="#e0e0e0"/><rect x="336" y="82" width="6" height="6" fill="#e0e0e0"/><rect x="342" y="82" width="6" height="6" fill="#e0e0e0"/><rect x="348" y="82" width="6" height="6" fill="#e0e0e0"/><rect x="354" y="82" width="6" height="6" fill="#e0e0e0"/><rect x="360" y="82" width="6" height="6" fill="#e0e0e0"/><rect x="366" y="82" width="6" height="6" fill="#e0e0e0"/><rect x="372" y="82" width="6" height="6" fill="#e0e0e0"/><rect x="378" y="82" width="6" height="6" fill="#e0e0e0"/><rect x="336" y="88" width="6" height="6" fill="#e0e0e0"/><rect x="342" y="88" width="6" height="6" fill="#e0e0e0"/><rect x="348" y="88" width="6" height="6" fill="#e0e0e0"/><rect x="354" y="88" width="6" height="6" fill="#e0e0e0"/><rect x="360" y="88" width="6" height="6" fill="#e0e0e0"/><rect x="366" y="88" width="6" height="6" fill="#e0e0e0"/><rect x="372" y="88" width="6" height="6" fill="#e0e0e0"/><rect x="378" y="88" width="6" height="6" fill="#e0e0e0"/><rect x="336" y="94" width="6" height="6" fill="#e0e0e0"/><rect x="342" y="94" width="6" height="6" fill="#e0e0e0"/><rect x="348" y="94" width="6" height="6" fill="#e0e0e0"/><rect x="354" y="94" width="6" height="6" fill="#e0e0e0"/><rect x="360" y="94" width="6" height="6" fill="#e0e0e0"/><rect x="366" y="94" width="6" height="6" fill="#e0e0e0"/><rect x="372" y="94" width="6" height="6" fill="#e0e0e0"/><rect x="378" y="94" width="6" height="6" fill="#e0e0e0"/><rect x="330" y="100" width="6" height="6" fill="#f5deb3"/><rect x="336" y="100" width="6" height="6" fill="#e0e0e0"/><rect x="342" y="100" width="6" height="6" fill="#e0e0e0"/><rect x="348" y="100" width="6" height="6" fill="#e0e0e0"/><rect x="354" y="100" width="6" height="6" fill="#e0e0e0"/><rect x="360" y="100" width="6" height="6" fill="#e0e0e0"/><rect x="366" y="100" width="6" height="6" fill="#e0e0e0"/><rect x="372" y="100" width="6" height="6" fill="#e0e0e0"/><rect x="378" y="100" width="6" height="6" fill="#e0e0e0"/><rect x="384" y="100" width="6" height="6" fill="#f5deb3"/><rect x="330" y="106" width="6" height="6" fill="#f5deb3"/><rect x="336" y="106" width="6" height="6" fill="#e0e0e0"/><rect x="342" y="106" width="6" height="6" fill="#d0d0d0"/><rect x="348" y="106" width="6" height="6" fill="#e0e0e0"/><rect x="354" y="106" width="6" height="6" fill="#e0e0e0"/><rect x="360" y="106" width="6" height="6" fill="#e0e0e0"/><rect x="366" y="106" width="6" height="6" fill="#e0e0e0"/><rect x="372" y="106" width="6" height="6" fill="#d0d0d0"/><rect x="378" y="106" width="6" height="6" fill="#e0e0e0"/><rect x="384" y="106" width="6" height="6" fill="#f5deb3"/><rect x="330" y="112" width="6" height="6" fill="#f5deb3"/><rect x="336" y="112" width="6" height="6" fill="#f5deb3"/><rect x="342" y="112" width="6" height="6" fill="#d0d0d0"/><rect x="348" y="112" width="6" height="6" fill="#e0e0e0"/><rect x="354" y="112" width="6" height="6" fill="#e0e0e0"/><rect x="360" y="112" width="6" height="6" fill="#e0e0e0"/><rect x="366" y="112" width="6" height="6" fill="#e0e0e0"/><rect x="372" y="112" width="6" height="6" fill="#d0d0d0"/><rect x="378" y="112" width="6" height="6" fill="#f5deb3"/><rect x="384" y="112" width="6" height="6" fill="#f5deb3"/><rect x="336" y="118" width="6" height="6" fill="#f5deb3"/><rect x="342" y="118" width="6" height="6" fill="#d0d0d0"/><rect x="348" y="118" width="6" height="6" fill="#d0d0d0"/><rect x="354" y="118" width="6" height="6" fill="#e0e0e0"/><rect x="360" y="118" width="6" height="6" fill="#e0e0e0"/><rect x="366" y="118" width="6" height="6" fill="#d0d0d0"/><rect x="372" y="118" width="6" height="6" fill="#d0d0d0"/><rect x="378" y="118" width="6" height="6" fill="#f5deb3"/><rect x="342" y="124" width="6" height="6" fill="#b0b0b0"/><rect x="348" y="124" width="6" height="6" fill="#b0b0b0"/><rect x="354" y="124" width="6" height="6" fill="#b0b0b0"/><rect x="360" y="124" width="6" height="6" fill="#b0b0b0"/><rect x="366" y="124" width="6" height="6" fill="#b0b0b0"/><rect x="372" y="124" width="6" height="6" fill="#b0b0b0"/><rect x="342" y="130" width="6" height="6" fill="#b0b0b0"/><rect x="348" y="130" width="6" height="6" fill="#b0b0b0"/><rect x="354" y="130" width="6" height="6" fill="#b0b0b0"/><rect x="360" y="130" width="6" height="6" fill="#b0b0b0"/><rect x="366" y="130" width="6" height="6" fill="#b0b0b0"/><rect x="372" y="130" width="6" height="6" fill="#b0b0b0"/><rect x="342" y="136" width="6" height="6" fill="#b0b0b0"/><rect x="348" y="136" width="6" height="6" fill="#b0b0b0"/><rect x="366" y="136" width="6" height="6" fill="#b0b0b0"/><rect x="372" y="136" width="6" height="6" fill="#b0b0b0"/><rect x="342" y="142" width="6" height="6" fill="#b0b0b0"/><rect x="348" y="142" width="6" height="6" fill="#b0b0b0"/><rect x="366" y="142" width="6" height="6" fill="#b0b0b0"/><rect x="372" y="142" width="6" height="6" fill="#b0b0b0"/><rect x="336" y="148" width="6" height="6" fill="#808080"/><rect x="342" y="148" width="6" height="6" fill="#808080"/><rect x="348" y="148" width="6" height="6" fill="#808080"/><rect x="366" y="148" width="6" height="6" fill="#808080"/><rect x="372" y="148" width="6" height="6" fill="#808080"/><rect x="378" y="148" width="6" height="6" fill="#808080"/><rect x="336" y="154" width="6" height="6" fill="#808080"/><rect x="342" y="154" width="6" height="6" fill="#808080"/><rect x="348" y="154" width="6" height="6" fill="#808080"/><rect x="366" y="154" width="6" height="6" fill="#808080"/><rect x="372" y="154" width="6" height="6" fill="#808080"/><rect x="378" y="154" width="6" height="6" fill="#808080"/><text x="360" y="196" text-anchor="middle" font-family="monospace" font-size="11" fill="#808080">Доктор</text><rect x="484" y="64" width="6" height="6" fill="#4a3728"/><rect x="490" y="64" width="6" height="6" fill="#4a3728"/><rect x="496" y="64" width="6" height="6" fill="#4a3728"/><rect x="502" y="64" width="6" height="6" fill="#4a3728"/><rect x="478" y="70" width="6" height="6" fill="#4a3728"/><rect x="484" y="70" width="6" height="6" fill="#4a3728"/><rect x="490" y="70" width="6" height="6" fill="#4a3728"/><rect x="496" y="70" width="6" height="6" fill="#4a3728"/><rect x="502" y="70" width="6" height="6" fill="#4a3728"/><rect x="508" y="70" width="6" height="6" fill="#4a3728"/><rect x="472" y="76" width="6" height="6" fill="#4a3728"/><rect x="478" y="76" width="6" height="6" fill="#4a3728"/><rect x="484" y="76" width="6" height="6" fill="#2a1a0a"/><rect x="490" y="76" width="6" height="6" fill="#4a3728"/><rect x="496" y="76" width="6" height="6" fill="#4a3728"/><rect x="502" y="76" width="6" height="6" fill="#2a1a0a"/><rect x="508" y="76" width="6" height="6" fill="#4a3728"/><rect x="514" y="76" width="6" height="6" fill="#4a3728"/><rect x="472" y="82" width="6" height="6" fill="#4a3728"/><rect x="478" y="82" width="6" height="6" fill="#f5deb3"/><rect x="484" y="82" width="6" height="6" fill="#f5deb3"/><rect x="490" y="82" width="6" height="6" fill="#f5deb3"/><rect x="496" y="82" width="6" height="6" fill="#f5deb3"/><rect x="502" y="82" width="6" height="6" fill="#f5deb3"/><rect x="508" y="82" width="6" height="6" fill="#f5deb3"/><rect x="514" y="82" width="6" height="6" fill="#4a3728"/><rect x="478" y="88" width="6" height="6" fill="#f5deb3"/><rect x="484" y="88" width="6" height="6" fill="#2a1a0a"/><rect x="490" y="88" width="6" height="6" fill="#f5deb3"/><rect x="496" y="88" width="6" height="6" fill="#f5deb3"/><rect x="502" y="88" width="6" height="6" fill="#2a1a0a"/><rect x="508" y="88" width="6" height="6" fill="#f5deb3"/><rect x="478" y="94" width="6" height="6" fill="#f5deb3"/><rect x="484" y="94" width="6" height="6" fill="#f5deb3"/><rect x="490" y="94" width="6" height="6" fill="#e0c8a0"/><rect x="496" y="94" width="6" height="6" fill="#e0c8a0"/><rect x="502" y="94" width="6" height="6" fill="#f5deb3"/><rect x="508" y="94" width="6" height="6" fill="#f5deb3"/><rect x="484" y="100" width="6" height="6" fill="#f5deb3"/><rect x="490" y="100" width="6" height="6" fill="#f5deb3"/><rect x="496" y="100" width="6" height="6" fill="#f5deb3"/><rect x="502" y="100" width="6" height="6" fill="#f5deb3"/><rect x="478" y="106" width="6" height="6" fill="#cc2020"/><rect x="484" y="106" width="6" height="6" fill="#cc2020"/><rect x="490" y="106" width="6" height="6" fill="#cc2020"/><rect x="496" y="106" width="6" height="6" fill="#cc2020"/><rect x="502" y="106" width="6" height="6" fill="#cc2020"/><rect x="508" y="106" width="6" height="6" fill="#cc2020"/><rect x="472" y="112" width="6" height="6" fill="#cc2020"/><rect x="478" y="112" width="6" height="6" fill="#cc2020"/><rect x="484" y="112" width="6" height="6" fill="#cc2020"/><rect x="490" y="112" width="6" height="6" fill="#cc2020"/><rect x="496" y="112" width="6" height="6" fill="#cc2020"/><rect x="502" y="112" width="6" height="6" fill="#cc2020"/><rect x="508" y="112" width="6" height="6" fill="#cc2020"/><rect x="514" y="112" width="6" height="6" fill="#cc2020"/><rect x="472" y="118" width="6" height="6" fill="#cc2020"/><rect x="478" y="118" width="6" height="6" fill="#cc2020"/><rect x="484" y="118" width="6" height="6" fill="#cc2020"/><rect x="490" y="118" width="6" height="6" fill="#cc2020"/><rect x="496" y="118" width="6" height="6" fill="#cc2020"/><rect x="502" y="118" width="6" height="6" fill="#cc2020"/><rect x="508" y="118" width="6" height="6" fill="#cc2020"/><rect x="514" y="118" width="6" height="6" fill="#cc2020"/><rect x="472" y="124" width="6" height="6" fill="#cc2020"/><rect x="478" y="124" width="6" height="6" fill="#aa1818"/><rect x="484" y="124" width="6" height="6" fill="#cc2020"/><rect x="490" y="124" width="6" height="6" fill="#cc2020"/><rect x="496" y="124" width="6" height="6" fill="#cc2020"/><rect x="502" y="124" width="6" height="6" fill="#cc2020"/><rect x="508" y="124" width="6" height="6" fill="#aa1818"/><rect x="514" y="124" width="6" height="6" fill="#cc2020"/><rect x="472" y="130" width="6" height="6" fill="#f5deb3"/><rect x="478" y="130" width="6" height="6" fill="#aa1818"/><rect x="484" y="130" width="6" height="6" fill="#cc2020"/><rect x="490" y="130" width="6" height="6" fill="#cc2020"/><rect x="496" y="130" width="6" height="6" fill="#cc2020"/><rect x="502" y="130" width="6" height="6" fill="#cc2020"/><rect x="508" y="130" width="6" height="6" fill="#aa1818"/><rect x="514" y="130" width="6" height="6" fill="#f5deb3"/><rect x="478" y="136" width="6" height="6" fill="#cc2020"/><rect x="484" y="136" width="6" height="6" fill="#cc2020"/><rect x="490" y="136" width="6" height="6" fill="#cc2020"/><rect x="496" y="136" width="6" height="6" fill="#cc2020"/><rect x="502" y="136" width="6" height="6" fill="#cc2020"/><rect x="508" y="136" width="6" height="6" fill="#cc2020"/><rect x="478" y="142" width="6" height="6" fill="#f5deb3"/><rect x="484" y="142" width="6" height="6" fill="#f5deb3"/><rect x="502" y="142" width="6" height="6" fill="#f5deb3"/><rect x="508" y="142" width="6" height="6" fill="#f5deb3"/><rect x="478" y="148" width="6" height="6" fill="#f5deb3"/><rect x="484" y="148" width="6" height="6" fill="#f5deb3"/><rect x="502" y="148" width="6" height="6" fill="#f5deb3"/><rect x="508" y="148" width="6" height="6" fill="#f5deb3"/><rect x="472" y="154" width="6" height="6" fill="#2a1a0a"/><rect x="478" y="154" width="6" height="6" fill="#2a1a0a"/><rect x="484" y="154" width="6" height="6" fill="#2a1a0a"/><rect x="502" y="154" width="6" height="6" fill="#2a1a0a"/><rect x="508" y="154" width="6" height="6" fill="#2a1a0a"/><rect x="514" y="154" width="6" height="6" fill="#2a1a0a"/><text x="496" y="196" text-anchor="middle" font-family="monospace" font-size="11" fill="#808080">Маленькая Мила</text></svg>